#!OML:ASF H:\Punching\Project 1\Capture day 1\Session 1\female.ASF
:FULLY-SPECIFIED
:DEGREES
1156
root -1.46417 10.589 4.64129 15.0369 17.6222 3.68822
lowerback 26.6044 1.25087 5.0197
upperback 1.06581 3.49533 2.23978
thorax -13.5522 1.35598 -1.61867
lowerneck -12.2146 -1.25937 5.20181
upperneck 11.2859 -2.64036 0.180565
head 5.34496 -1.04333 -0.998167
rclavicle 7.95139e-015 -2.38542e-014
rhumerus 27.0875 14.6721 -72.1582
rradius 137.173
rwrist -43.3555
rhand -19.2297 -4.7321
rfingers 7.12502
rthumb 7.08339 -34.5936
lclavicle 7.95139e-015 -2.38542e-014
lhumerus 12.7976 -26.2234 78.0048
lradius 139.798
lwrist 21.4233
lhand -6.45343 31.2696
lfingers 7.12502
lthumb 19.3964 60.3222
rfemur -83.5399 -13.5186 6.17713
rtibia 105.553
rfoot -27.0248 -10.7059
rtoes -8.58089
lfemur -58.3451 3.94735 9.7515
ltibia 106.1
lfoot -26.5769 -25.6901
ltoes -41.0542
1157
root -1.45255 10.6073 4.6297 15.1537 16.8145 3.37581
lowerback 26.5738 1.11511 4.75564
upperback 1.0237 3.22353 2.14156
thorax -13.6079 1.24385 -1.47995
lowerneck -12.1489 -0.782512 5.84267
upperneck 11.3498 -2.07704 -0.0649131
head 5.36029 -0.757861 -1.13397
rclavicle 4.77083e-015 -5.40694e-014
rhumerus 26.8494 15.5475 -72.9111
rradius 137.18
rwrist -43.2486
rhand -19.138 -4.6263
rfingers 7.12502
rthumb 7.17199 -34.4848
lclavicle 4.77083e-015 -5.40694e-014
lhumerus 13.5244 -26.3028 77.4271
lradius 139.032
lwrist 21.9498
lhand -7.44583 31.369
lfingers 7.12502
lthumb 18.442 60.5148
rfemur -84.056 -12.9345 6.5725
rtibia 105.112
rfoot -26.5894 -10.4728
rtoes -8.16163
lfemur -58.0718 3.99479 9.91402
ltibia 106.125
lfoot -26.9125 -24.978
ltoes -41.7047
1158
root -1.43826 10.6257 4.61679 15.2801 15.8819 2.99192
lowerback 26.5072 0.9525 4.48546
upperback 0.982623 2.90812 2.0149
thorax -13.6417 1.1122 -1.35283
lowerneck -12.0468 -0.238482 6.58396
upperneck 11.4261 -1.4364 -0.321236
head 5.38088 -0.430728 -1.28322
rclavicle -3.97569e-014 1.74931e-014
rhumerus 26.5612 16.4417 -73.7041
rradius 137.194
rwrist -43.1184
rhand -19.0206 -4.50967
rfingers 7.12502
rthumb 7.28526 -34.3643
lclavicle -3.97569e-014 1.74931e-014
lhumerus 14.2893 -26.3388 76.7863
lradius 138.155
lwrist 22.4094
lhand -8.62306 31.4571
lfingers 7.12502
lthumb 17.3092 60.7063
rfemur -84.6186 -12.2932 7.06243
rtibia 104.6
rfoot -26.1396 -10.1797
rtoes -7.81234
lfemur -57.7747 4.09876 10.1262
ltibia 106.194
lfoot -27.195 -24.2343
ltoes -42.3016
1159
root -1.42156 10.644 4.60313 15.4108 14.8347 2.53045
lowerback 26.4063 0.769306 4.21644
upperback 0.947946 2.56108 1.8691
thorax -13.6476 0.966365 -1.2356
lowerneck -11.9302 0.363332 7.40417
upperneck 11.5298 -0.729288 -0.58184
head 5.41705 -0.0671538 -1.44129
rclavicle 4.45278e-014 1.59028e-015
rhumerus 26.2334 17.3316 -74.5113
rradius 137.205
rwrist -42.9311
rhand -18.8835 -4.38854
rfingers 7.12502
rthumb 7.41761 -34.2385
lclavicle 4.45278e-014 1.59028e-015
lhumerus 15.1292 -26.3026 76.0803
lradius 137.094
lwrist 22.7084
lhand -9.87982 31.5198
lfingers 7.12502
lthumb 16.0994 60.871
rfemur -85.2039 -11.5907 7.64964
rtibia 104.015
rfoot -25.6824 -9.83023
rtoes -7.52982
lfemur -57.4461 4.25459 10.4006
ltibia 106.303
lfoot -27.4236 -23.4695
ltoes -42.839
1160
root -1.40271 10.6625 4.5893 15.5412 13.6841 1.99827
lowerback 26.2612 0.569486 3.94663
upperback 0.932027 2.18736 1.7108
thorax -13.6059 0.809379 -1.12161
lowerneck -11.7962 1.01669 8.28462
upperneck 11.6503 0.0401485 -0.846205
head 5.46675 0.329849 -1.6048
rclavicle 9.54166e-015 -1.11319e-014
rhumerus 25.8854 18.2039 -75.3102
rradius 137.202
rwrist -42.6771
rhand -18.7726 -4.28223
rfingers 7.12502
rthumb 7.52467 -34.1284
lclavicle 9.54166e-015 -1.11319e-014
lhumerus 16.0706 -26.1585 75.3021
lradius 135.8
lwrist 22.7828
lhand -11.1159 31.5506
lfingers 7.12502
lthumb 14.9089 60.9941
rfemur -85.7867 -10.8301 8.32231
rtibia 103.363
rfoot -25.2233 -9.41964
rtoes -7.31038
lfemur -57.0739 4.43995 10.7307
ltibia 106.443
lfoot -27.6029 -22.6715
ltoes -43.3334
1161
root -1.382 10.6814 4.57596 15.661 12.4449 1.40003
lowerback 26.0969 0.356545 3.68664
upperback 0.926842 1.79708 1.54
thorax -13.5392 0.644066 -1.02182
lowerneck -11.6279 1.70785 9.21909
upperneck 11.79 0.857079 -1.11539
head 5.52906 0.752864 -1.77377
rclavicle -1.78906e-014 -9.54166e-015
rhumerus 25.485 19.0545 -76.098
rradius 137.187
rwrist -42.3436
rhand -18.6753 -4.17387
rfingers 7.12502
rthumb 7.61861 -34.0166
lclavicle -1.78906e-014 -9.54166e-015
lhumerus 17.1626 -25.8672 74.4316
lradius 134.195
lwrist 22.6482
lhand -12.253 31.5563
lfingers 7.12502
lthumb 13.8132 61.0777
rfemur -86.3374 -10.0183 9.07487
rtibia 102.654
rfoot -24.7696 -8.9432
rtoes -7.15362
lfemur -56.6381 4.62994 11.1159
ltibia 106.607
lfoot -27.7608 -21.8264
ltoes -43.798
1162
root -1.35946 10.7009 4.56377 15.762 11.1324 0.747915
lowerback 25.9241 0.133432 3.44363
upperback 0.93607 1.39669 1.35485
thorax -13.4489 0.47258 -0.945324
lowerneck -11.4298 2.42619 10.2001
upperneck 11.947 1.7097 -1.39236
head 5.605 1.19564 -1.94834
rclavicle 2.8625e-014 1.66979e-014
rhumerus 25.0475 19.8388 -76.8638
rradius 137.148
rwrist -41.9867
rhand -18.5868 -4.0635
rfingers 7.12502
rthumb 7.70402 -33.9032
lclavicle 2.8625e-014 1.66979e-014
lhumerus 18.4098 -25.4184 73.4627
lradius 132.253
lwrist 22.328
lhand -13.2443 31.538
lfingers 7.12502
lthumb 12.8577 61.122
rfemur -86.8322 -9.17083 9.89341
rtibia 101.902
rfoot -24.3282 -8.38929
rtoes -7.03421
lfemur -56.1229 4.79122 11.5409
ltibia 106.786
lfoot -27.8989 -20.9157
ltoes -44.228
